<svg xmlns="http://www.w3.org/2000/svg" width="128" height="128" viewBox="0 0 128 128">
  <defs>
    <linearGradient id="grad" x1="0%" y1="0%" x2="100%" y2="100%">
      <stop offset="0%" style="stop-color:#4CAF50;stop-opacity:1" />
      <stop offset="100%" style="stop-color:#2E7D32;stop-opacity:1" />
    </linearGradient>
  </defs>
  <!-- Background circle -->
  <circle cx="64" cy="64" r="60" fill="url(#grad)"/>
  <!-- Shopping cart icon -->
  <g fill="white" transform="translate(24, 28)">
    <!-- Cart body -->
    <path d="M8 20 L16 8 L72 8 L80 44 L24 44 L20 24 L8 20 Z" fill="none" stroke="white" stroke-width="4"/>
    <!-- Wheels -->
    <circle cx="32" cy="56" r="6"/>
    <circle cx="64" cy="56" r="6"/>
    <!-- Sync arrows -->
    <path d="M48 24 A12 12 0 1 1 36 36" fill="none" stroke="white" stroke-width="3"/>
    <polygon points="48,18 48,30 54,24"/>
    <path d="M40 36 A12 12 0 1 1 52 24" fill="none" stroke="white" stroke-width="3"/>
    <polygon points="40,42 40,30 34,36"/>
  </g>
</svg>
